<svg width="499" height="500" viewBox="0 0 499 500" fill="none" xmlns="http://www.w3.org/2000/svg">
<g filter="url(#filter0_i_12_14)">
<path d="M16.1846 296.377C16.4383 293.478 18.994 291.334 21.8931 291.587L203.866 307.508C206.765 307.761 208.91 310.317 208.656 313.216L192.736 495.19C192.482 498.089 189.926 500.233 187.027 499.98L5.054 484.059C2.15493 483.805 0.0103853 481.25 0.264021 478.351L16.1846 296.377Z" fill="white"/>
<path d="M161.09 150.594C161.343 147.695 163.899 145.55 166.798 145.804L348.772 161.724C351.671 161.978 353.815 164.534 353.562 167.433L337.641 349.406C337.387 352.305 334.832 354.45 331.933 354.196L149.959 338.276C147.06 338.022 144.916 335.466 145.169 332.567L161.09 150.594Z" fill="white"/>
<path d="M305.995 4.81035C306.249 1.91128 308.804 -0.233267 311.704 0.0203686L493.677 15.941C496.576 16.1946 498.72 18.7504 498.467 21.6494L482.546 203.623C482.293 206.522 479.737 208.666 476.838 208.413L294.864 192.492C291.965 192.238 289.821 189.683 290.074 186.784L305.995 4.81035Z" fill="white"/>
</g>
<defs>
<filter id="filter0_i_12_14" x="0.243652" y="0" width="498.244" height="500" filterUnits="userSpaceOnUse" color-interpolation-filters="sRGB">
<feFlood flood-opacity="0" result="BackgroundImageFix"/>
<feBlend mode="normal" in="SourceGraphic" in2="BackgroundImageFix" result="shape"/>
<feColorMatrix in="SourceAlpha" type="matrix" values="0 0 0 0 0 0 0 0 0 0 0 0 0 0 0 0 0 0 127 0" result="hardAlpha"/>
<feOffset/>
<feGaussianBlur stdDeviation="15"/>
<feComposite in2="hardAlpha" operator="arithmetic" k2="-1" k3="1"/>
<feColorMatrix type="matrix" values="0 0 0 0 0 0 0 0 0 0 0 0 0 0 0 0 0 0 0.25 0"/>
<feBlend mode="normal" in2="shape" result="effect1_innerShadow_12_14"/>
</filter>
</defs>
</svg>
